<svg width="179" height="64" viewBox="0 0 179 64" fill="none" xmlns="http://www.w3.org/2000/svg">
    <path
        d="M98 45.3816V16.9859C98 14.9645 99.6552 13.3281 101.7 13.3281C103.745 13.3281 105.4 14.9645 105.4 16.9859V45.3816C105.4 47.403 103.745 49.0394 101.7 49.0394C99.6552 49.0394 98 47.403 98 45.3816Z"
        fill="black" />
    <path
        d="M112.252 16.8896V16.7934C112.252 14.6757 114.054 13.3763 116.39 13.3763C118.727 13.3763 120.528 14.6757 120.528 16.7934V16.8896C120.528 19.0073 118.727 20.3549 116.39 20.3549C114.054 20.3549 112.252 19.0073 112.252 16.8896ZM112.69 45.3816V26.3228C112.69 24.3014 114.346 22.665 116.39 22.665C118.435 22.665 120.09 24.3014 120.09 26.3228V45.3816C120.09 47.403 118.435 49.0394 116.39 49.0394C114.346 49.0394 112.69 47.403 112.69 45.3816Z"
        fill="black" />
    <path
        d="M142.424 46.1035C141.596 47.9805 140.233 49.28 138.237 49.28H137.848C135.852 49.28 134.489 48.0287 133.661 46.1035L125.677 27.8629C125.482 27.3816 125.288 26.7559 125.288 26.0821C125.288 24.3495 126.894 22.665 128.89 22.665C130.886 22.665 131.957 23.772 132.493 25.264L138.091 40.2319L143.787 25.1677C144.274 23.9164 145.296 22.665 147.244 22.665C149.191 22.665 150.797 24.157 150.797 26.1303C150.797 26.7559 150.554 27.526 150.408 27.8629L142.424 46.1035Z"
        fill="black" />
    <path
        d="M160.793 33.8308H171.941C171.503 30.5581 169.556 28.3442 166.44 28.3442C163.373 28.3442 161.377 30.5099 160.793 33.8308ZM176.225 46.1998C173.937 48.1249 170.967 49.3281 167.17 49.3281C159.332 49.3281 153.539 43.8896 153.539 35.9966V35.9003C153.539 28.5367 158.845 22.4725 166.44 22.4725C175.154 22.4725 179 29.5474 179 34.8896C179 37.0073 177.491 38.403 175.544 38.403H160.89C161.62 41.7238 163.957 43.4565 167.267 43.4565C169.312 43.4565 171.016 42.8308 172.525 41.7238C173.061 41.3388 173.548 41.1463 174.326 41.1463C175.982 41.1463 177.199 42.3976 177.199 44.034C177.199 44.9966 176.761 45.7185 176.225 46.1998Z"
        fill="black" />
    <path
        d="M23 38.8268C25 38.6601 29.2 38.1268 30 37.3268V24.8268L28.5 10.8268L33 7.32681H37.5L45 10.8268L49 7.32681C49 7.32681 52.942 2.36386 56.5 0.826808C61.8895 -1.50141 71.5 1.82681 71.5 1.82681L81.5 6.32681L87.5 14.8268L89 23.3268L86.5 33.8268L79.5 40.8268L70 42.8268H57.5C55.1 42.8268 54.1667 44.4935 54 45.3268L55.5 48.8268L59 53.8268V59.8268L54 63.8268H45L37.5 53.8268L30 57.3268L19 58.8268L5.5 52.3268L0 42.8268V33.8268L2 20.3268L7 10.8268L13.5 4.82681H19C20.3333 6.82681 23 11.1268 23 12.3268C23 13.5268 22.3333 15.1601 22 15.8268L19 23.3268L16 31.3268L17.5 36.3268L23 38.8268Z"
        fill="white" />
    <circle cx="116.1" cy="16.8281" r="4.5" fill="#C49F4F" />
</svg>
